<svg width="1280" height="647" fill="none" xmlns="http://www.w3.org/2000/svg"><g clip-path="url(#a)"><g filter="url(#b)"><path d="M646.877 67.843a4.5 4.5 0 0 0 6.364 6.364L717.587 9.86a4.5 4.5 0 0 0-6.364-6.364l-64.346 64.347Z" fill="url(#c)"/><path d="M663.14 83.4a4.5 4.5 0 0 1 0-6.365l73.539-73.539a4.5 4.5 0 0 1 6.364 6.364L669.504 83.4a4.5 4.5 0 0 1-6.364 0Z" fill="url(#d)"/><path d="M3.41 76.328a4.5 4.5 0 0 0 6.363 6.364L82.606 9.86a4.5 4.5 0 0 0-6.364-6.364L3.41 76.328Z" fill="url(#e)"/><path d="M133.517 3.496a4.5 4.5 0 0 0-6.364 0L3.41 127.24a4.5 4.5 0 0 0 6.363 6.364L133.517 9.86a4.5 4.5 0 0 0 0-6.364Z" fill="url(#f)"/><path d="M45.836 8.446A4.5 4.5 0 0 0 52.2 14.81l4.95-4.95a4.5 4.5 0 1 0-6.364-6.364l-4.95 4.95Z" fill="url(#g)"/><path d="M25.33 3.496a4.5 4.5 0 0 1 6.364 6.364L9.774 31.78a4.5 4.5 0 1 1-6.364-6.363l21.92-21.92Z" fill="url(#h)"/><path d="M3.41 178.152a4.5 4.5 0 0 0 6.363 6.364L119.375 74.914a4.5 4.5 0 0 0-6.364-6.364L3.409 178.152Z" fill="url(#i)"/><path d="M3.41 108.148a4.5 4.5 0 0 1 0-6.364l12.727-12.728a4.5 4.5 0 1 1 6.364 6.364L9.773 108.148a4.5 4.5 0 0 1-6.363 0Z" fill="url(#j)"/><path d="M108.061 3.496a4.5 4.5 0 0 0-6.364 0L28.865 76.328a4.5 4.5 0 1 0 6.364 6.364L108.061 9.86a4.499 4.499 0 0 0 0-6.364Z" fill="url(#k)"/><path d="M120.082 36.023a4.5 4.5 0 0 0 6.364 6.364L158.973 9.86a4.5 4.5 0 0 0-6.364-6.364l-32.527 32.527Z" fill="url(#l)"/><path d="M3.41 57.236a4.5 4.5 0 0 1 0-6.364l29.698-29.698a4.5 4.5 0 1 1 6.364 6.364L9.773 57.236a4.5 4.5 0 0 1-6.363 0Z" fill="url(#m)"/><path d="M184.429 3.496a4.5 4.5 0 0 1 0 6.364l-22.628 22.628a4.5 4.5 0 1 1-6.364-6.364l22.628-22.628a4.5 4.5 0 0 1 6.364 0Z" fill="url(#n)"/><path d="M125.739 62.186a4.5 4.5 0 0 1 0-6.364l16.971-16.97a4.499 4.499 0 0 1 6.363 0 4.499 4.499 0 0 1 0 6.364l-16.97 16.97a4.5 4.5 0 0 1-6.364 0Z" fill="url(#o)"/><path d="M65.635 166.838a4.5 4.5 0 0 1 6.364 6.364L9.773 235.427a4.5 4.5 0 0 1-6.364-6.364l62.226-62.225Z" fill="url(#p)"/><path d="M3.41 286.339a4.5 4.5 0 0 1 0-6.364L264.331 19.053a4.5 4.5 0 0 1 6.364 6.364L9.773 286.339a4.5 4.5 0 0 1-6.364 0Z" fill="url(#q)"/><path d="M279.888 3.496a4.5 4.5 0 0 1 6.364 6.364l-2.828 2.829a4.5 4.5 0 0 1-6.364-6.364l2.828-2.829Z" fill="url(#r)"/><path d="M3.41 260.883a4.5 4.5 0 0 1 0-6.364L45.128 212.8a4.5 4.5 0 0 1 6.364 6.364l-41.72 41.719a4.499 4.499 0 0 1-6.364 0Z" fill="url(#s)"/><path d="M189.379 68.55a4.5 4.5 0 1 1 6.364 6.364L64.221 206.436a4.5 4.5 0 0 1-6.364-6.364L189.379 68.55Z" fill="url(#t)"/><path d="M235.34 3.496a4.499 4.499 0 0 0-6.363 0L154.73 77.743a4.5 4.5 0 0 0 6.364 6.363L235.34 9.86a4.499 4.499 0 0 0 0-6.364Z" fill="url(#u)"/><path d="M202.106 55.822a4.5 4.5 0 0 0 6.364 6.364L260.796 9.86a4.5 4.5 0 0 0-6.364-6.364l-52.326 52.326Z" fill="url(#v)"/><path d="M295.445 70.671a4.499 4.499 0 0 1 0-6.364l60.811-60.81a4.5 4.5 0 0 1 6.364 6.363l-60.811 60.811a4.5 4.5 0 0 1-6.364 0Z" fill="url(#w)"/><path d="M3.41 381.798a4.5 4.5 0 0 0 6.363 6.364L388.076 9.86a4.5 4.5 0 0 0-6.364-6.364L3.409 381.798Z" fill="url(#x)"/><path d="M424.138 18.346a4.5 4.5 0 0 0-6.364 0L69.17 366.949a4.5 4.5 0 0 0 6.364 6.364L424.138 24.71a4.5 4.5 0 0 0 0-6.364Z" fill="url(#y)"/><path d="M3.41 407.254a4.5 4.5 0 0 0 6.363 6.364L71.292 352.1a4.5 4.5 0 1 0-6.364-6.364L3.409 407.254Z" fill="url(#z)"/><path d="M56.443 309.673a4.499 4.499 0 0 1 0-6.363l19.091-19.092a4.5 4.5 0 1 1 6.364 6.364l-19.092 19.091a4.499 4.499 0 0 1-6.363 0Z" fill="url(#A)"/><path d="M107.354 48.751a4.5 4.5 0 1 1 6.364 6.364L9.773 159.06a4.5 4.5 0 0 1-6.363-6.364L107.354 48.751Z" fill="url(#B)"/><path d="M3.41 362.707a4.5 4.5 0 0 1 0-6.364L17.551 342.2a4.5 4.5 0 0 1 6.364 6.364L9.773 362.707a4.5 4.5 0 0 1-6.364 0Z" fill="url(#C)"/><path d="M52.2 282.096a4.5 4.5 0 0 1 6.364 6.364l-48.79 48.791a4.5 4.5 0 0 1-6.365-6.364l48.79-48.791Z" fill="url(#D)"/><path d="M3.41 311.795a4.5 4.5 0 0 1 0-6.364l19.799-19.799a4.5 4.5 0 0 1 6.363 6.364L9.773 311.795a4.5 4.5 0 0 1-6.364 0Z" fill="url(#E)"/><path d="M438.987 3.496a4.499 4.499 0 0 1 0 6.364l-2.121 2.122a4.5 4.5 0 1 1-6.364-6.364l2.121-2.122a4.5 4.5 0 0 1 6.364 0Z" fill="url(#F)"/><path d="M3.41 439.074a4.5 4.5 0 0 1 0-6.364l53.032-53.033a4.5 4.5 0 0 1 6.364 6.364L9.773 439.074a4.5 4.5 0 0 1-6.364 0Z" fill="url(#G)"/><path d="M30.28 329.473a4.499 4.499 0 1 0 6.364 6.363l13.434-13.435a4.5 4.5 0 1 0-6.363-6.364l-13.436 13.436Z" fill="url(#H)"/><path d="M413.531 3.496a4.5 4.5 0 0 0-6.364 0L332.214 78.45a4.5 4.5 0 0 0 6.364 6.364L413.531 9.86a4.499 4.499 0 0 0 0-6.364Z" fill="url(#I)"/><path d="M23.916 437.66a4.5 4.5 0 1 1 6.364 6.364L9.772 464.53a4.5 4.5 0 0 1-6.364-6.364l20.507-20.506Z" fill="url(#J)"/><path d="M36.644 431.296a4.5 4.5 0 0 1 0-6.364l9.192-9.192a4.499 4.499 0 1 1 6.364 6.363l-9.193 9.193a4.5 4.5 0 0 1-6.363 0Z" fill="url(#K)"/><path d="M58.564 403.012a4.5 4.5 0 0 0 6.364 6.364L464.443 9.86a4.5 4.5 0 0 0-6.364-6.364L58.564 403.012Z" fill="url(#L)"/><path d="M540.811 3.496a4.5 4.5 0 0 0-6.364 0l-63.286 63.286a4.5 4.5 0 0 0 6.364 6.364L540.811 9.86a4.5 4.5 0 0 0 0-6.364Z" fill="url(#M)"/><path d="M521.719 67.136a4.5 4.5 0 1 0 6.364 6.364l63.639-63.64a4.5 4.5 0 0 0-6.364-6.364l-63.639 63.64Z" fill="url(#N)"/><path d="M33.108 638.478a4.5 4.5 0 0 1 0-6.364l26.163-26.163a4.5 4.5 0 0 1 6.364 6.364l-26.163 26.163a4.5 4.5 0 0 1-6.364 0Z" fill="url(#O)"/><path d="M171.347 568.828a4.5 4.5 0 0 1 6.364 6.364l-63.286 63.286a4.5 4.5 0 0 1-6.364-6.364l63.286-63.286Z" fill="url(#P)"/><path d="M680.111 15.517a4.499 4.499 0 0 1 0-6.364l5.657-5.657a4.5 4.5 0 0 1 6.364 6.364l-5.657 5.657a4.5 4.5 0 0 1-6.364 0Z" fill="url(#Q)"/><path d="M157.559 557.161a4.5 4.5 0 0 1 6.364 6.364l-74.954 74.953a4.5 4.5 0 0 1-6.363-6.364l74.953-74.953Z" fill="url(#R)"/><path d="M815.875 13.396a4.5 4.5 0 0 1-6.364-6.364l3.536-3.536a4.5 4.5 0 0 1 6.364 6.364l-3.536 3.536Z" fill="url(#S)"/><path d="M739.508 77.035a4.5 4.5 0 1 0 6.364 6.364l57.275-57.275a4.5 4.5 0 0 0-6.364-6.364l-57.275 57.275Z" fill="url(#T)"/><path d="M184.429 638.478a4.499 4.499 0 0 1 0-6.364l65.761-65.761a4.5 4.5 0 0 1 6.364 6.364l-65.761 65.761a4.499 4.499 0 0 1-6.364 0Z" fill="url(#U)"/><path d="M764.256 77.743a4.5 4.5 0 0 0 6.364 6.363l28.285-28.284a4.5 4.5 0 0 0-6.364-6.364l-28.285 28.285Z" fill="url(#V)"/><path d="M870.322 9.86a4.5 4.5 0 0 0-6.364-6.364L235.34 632.114a4.5 4.5 0 0 0 6.364 6.364L870.322 9.86Z" fill="url(#W)"/><path d="M805.269 36.73a4.5 4.5 0 1 0 6.364 6.364L844.867 9.86a4.5 4.5 0 0 0-6.364-6.364L805.269 36.73Z" fill="url(#X)"/><path d="M3.218 566.544a4.499 4.499 0 0 1 0-6.363l15.748-15.748a4.5 4.5 0 0 1 6.364 6.364L9.582 566.544a4.499 4.499 0 0 1-6.364 0Z" fill="url(#Y)"/><path d="M3.41 591.809a4.5 4.5 0 0 0 6.363 0l41.72-41.719a4.5 4.5 0 1 0-6.364-6.364l-41.72 41.719a4.5 4.5 0 0 0 0 6.364Z" fill="url(#Z)"/><path d="M38.765 537.362a4.5 4.5 0 1 0-6.364-6.364l-.707.707a4.5 4.5 0 1 0 6.364 6.364l.707-.707Z" fill="url(#aa)"/><path d="M475.757 43.094a4.5 4.5 0 0 1 0 6.364l-.707.707a4.5 4.5 0 1 1-6.364-6.364l.707-.707a4.5 4.5 0 0 1 6.364 0Z" fill="url(#ab)"/><path d="M515.355 3.496a4.5 4.5 0 0 0-6.364 0l-26.87 26.87a4.5 4.5 0 0 0 6.364 6.364l26.87-26.87a4.5 4.5 0 0 0 0-6.364Z" fill="url(#ac)"/><path d="M67.403 521.452a4.5 4.5 0 0 1 6.364 6.364l-9.546 9.546a4.5 4.5 0 0 1-6.364-6.364l9.546-9.546Z" fill="url(#ad)"/><path d="M264.332 584.031a4.5 4.5 0 0 1 0-6.364l11.314-11.314a4.5 4.5 0 0 1 6.364 6.364l-11.314 11.314a4.5 4.5 0 0 1-6.364 0Z" fill="url(#ae)"/><path d="M251.604 590.395a4.5 4.5 0 0 1 6.364 6.364l-41.719 41.719a4.499 4.499 0 0 1-6.364 0 4.499 4.499 0 0 1 0-6.364l41.719-41.719Z" fill="url(#af)"/><path d="M3.41 540.897a4.5 4.5 0 0 1 0-6.364l73.539-73.539a4.5 4.5 0 0 1 6.364 6.364l-73.54 73.539a4.499 4.499 0 0 1-6.364 0Z" fill="url(#ag)"/><path d="M661.726 3.496a4.5 4.5 0 0 1 6.364 6.364l-18.385 18.385a4.5 4.5 0 1 1-6.364-6.364l18.385-18.385Z" fill="url(#ah)"/><path d="M209.885 3.496a4.5 4.5 0 0 0-6.364 0L3.409 203.607a4.5 4.5 0 0 0 6.364 6.364L209.885 9.861a4.5 4.5 0 0 0 0-6.365Z" fill="url(#ai)"/><path d="M337.164 3.496a4.5 4.5 0 0 0-6.364 0L64.928 269.368a4.5 4.5 0 1 0 6.364 6.364L337.164 9.86a4.5 4.5 0 0 0 0-6.364Z" fill="url(#aj)"/><path d="M35.936 279.268a4.5 4.5 0 0 1 0-6.364L305.344 3.496a4.5 4.5 0 0 1 6.364 6.364L42.3 279.268a4.5 4.5 0 0 1-6.364 0Z" fill="url(#ak)"/><path d="M3.41 489.986a4.5 4.5 0 0 1 0-6.364L483.534 3.496a4.5 4.5 0 0 1 6.364 6.364L9.773 489.986a4.5 4.5 0 0 1-6.364 0Z" fill="url(#al)"/><path d="M3.41 509.078a4.5 4.5 0 0 0 6.363 6.364L462.322 62.893a4.5 4.5 0 0 0-6.364-6.364L3.409 509.078Z" fill="url(#am)"/><path d="M45.195 518.204a4.5 4.5 0 1 0 6.364 6.364L566.266 9.86a4.499 4.499 0 0 0 0-6.364 4.499 4.499 0 0 0-6.363 0L45.195 518.204Z" fill="url(#an)"/><path d="M9.773 617.265a4.5 4.5 0 0 1-6.364-6.364L610.814 3.496a4.5 4.5 0 0 1 6.364 6.364L9.773 617.265Z" fill="url(#ao)"/><path d="M636.27 3.496a4.5 4.5 0 0 1 6.364 6.364L14.016 638.478a4.5 4.5 0 0 1-6.364-6.364L636.27 3.496Z" fill="url(#ap)"/><path d="M71.999 599.587a4.5 4.5 0 0 1 0-6.364L630.613 34.609a4.5 4.5 0 1 1 6.364 6.364L78.363 599.587a4.499 4.499 0 0 1-6.364 0Z" fill="url(#aq)"/><path d="M57.15 638.478a4.5 4.5 0 0 0 6.364 0L673.747 28.245a4.5 4.5 0 0 0-6.364-6.364L57.15 632.114a4.5 4.5 0 0 0 0 6.364Z" fill="url(#ar)"/><path d="M762.135 3.496a4.5 4.5 0 0 1 6.364 6.364L139.881 638.478a4.5 4.5 0 0 1-6.364-6.364L762.135 3.496Z" fill="url(#as)"/><path d="M793.955 3.496a4.5 4.5 0 0 0-6.364 0L158.973 632.114a4.5 4.5 0 0 0 6.364 6.364L793.955 9.86a4.5 4.5 0 0 0 0-6.364Z" fill="url(#at)"/></g><g filter="url(#au)"><path d="M75 100c0-12.703 10.297-23 23-23h1084c12.7 0 23 10.297 23 23v440c0 12.703-10.3 23-23 23H98c-12.703 0-23-10.297-23-23V100Z" fill="#fff"/></g><g filter="url(#av)"><path d="m1138.97 595.838-8.3-11.814h-8.3l12.64 17.478 3.89-4.721a.818.818 0 0 0 .07-.943Z" fill="#747778"/></g><g filter="url(#aw)"><path d="M1142.89 602.488a.813.813 0 0 0 .04-1.001l-4.11-5.838c.18.296.15.675-.07.943l-13.39 16.249h8.87l8.66-10.353Z" fill="#747778"/></g><g filter="url(#ax)"><path d="m1104.7 606.214 8.3 11.814h8.3l-12.63-17.479-3.89 4.722a.837.837 0 0 0-.08.943Z" fill="#747778"/></g><g filter="url(#ay)"><path d="M1100.83 599.636a.812.812 0 0 0-.04 1l4.1 5.839a.839.839 0 0 1 .08-.944l13.39-16.249h-8.87l-8.66 10.354Z" fill="#747778"/></g><g filter="url(#az)" fill="#747778"><path d="M1143.74 617.353c0 .224-.08.423-.23.595a.75.75 0 0 1-.59.258c-.26 0-.46-.086-.61-.258a.875.875 0 0 1-.22-.595c0-.232.07-.434.22-.606s.35-.258.61-.258c.24 0 .44.086.59.258.15.172.23.374.23.606Z"/><path fill-rule="evenodd" clip-rule="evenodd" d="M1150.88 615.479c0 .396-.06.763-.16 1.099-.1.33-.24.614-.44.853-.19.24-.42.427-.69.562-.28.134-.6.202-.95.202-.27 0-.52-.034-.73-.101a1.609 1.609 0 0 1-.47-.225v2.054h-.93v-6.902c.2-.06.46-.12.77-.18.33-.06.69-.089 1.1-.089.38 0 .72.063 1.03.19.3.127.56.311.78.55.22.232.39.516.51.853.12.337.18.715.18 1.134Zm-.96 0c0-.606-.14-1.074-.42-1.403a1.405 1.405 0 0 0-1.12-.505c-.25 0-.45.011-.6.033-.14.023-.26.049-.34.079v3.288c.11.098.26.187.46.27.2.082.41.123.63.123.25 0 .46-.049.63-.146.18-.097.32-.228.44-.393.11-.172.19-.37.24-.594.06-.232.08-.483.08-.752Z"/><path d="M1152.53 618.071v-4.927a7.042 7.042 0 0 1 2.99-.359c.22.015.46.053.72.112l-.17.82a3.324 3.324 0 0 0-.64-.124 5.293 5.293 0 0 0-1.98.157v4.321h-.92Z"/><path fill-rule="evenodd" clip-rule="evenodd" d="M1162.1 615.467c0 .412-.06.786-.18 1.123-.11.329-.27.613-.48.853-.21.239-.46.426-.75.561-.29.127-.61.191-.96.191-.33 0-.65-.064-.94-.191a2.32 2.32 0 0 1-.74-.561c-.21-.24-.38-.524-.49-.853a3.33 3.33 0 0 1-.17-1.123c0-.411.05-.785.17-1.122.11-.337.28-.621.49-.853.21-.239.46-.423.74-.55.29-.134.61-.202.94-.202.35 0 .67.068.96.202.29.127.54.311.75.55.21.232.37.516.48.853.12.337.18.711.18 1.122Zm-.95 0c0-.591-.13-1.055-.38-1.391a1.23 1.23 0 0 0-1.04-.516c-.42 0-.76.172-1.02.516-.25.336-.37.8-.37 1.391 0 .584.12 1.048.37 1.392.26.337.6.505 1.02.505.44 0 .78-.168 1.04-.505.25-.344.38-.808.38-1.392Z"/><path d="M1166.01 612.056c-.2 0-.37-.068-.51-.202-.14-.135-.21-.318-.21-.55 0-.232.07-.415.21-.55a.707.707 0 0 1 .51-.202c.2 0 .37.067.5.202.14.135.22.318.22.55 0 .232-.08.415-.22.55a.672.672 0 0 1-.5.202Zm-2.18 1.582v-.774h3.03v5.151c0 .359-.05.662-.16.909a1.524 1.524 0 0 1-.98.954c-.22.067-.45.101-.7.101-.28 0-.57-.03-.86-.09-.29-.06-.56-.153-.81-.28l.28-.786c.18.09.39.165.62.224.23.068.45.101.66.101.3 0 .54-.078.74-.235.19-.15.29-.445.29-.887v-4.388h-2.11Z"/><path fill-rule="evenodd" clip-rule="evenodd" d="M1171.07 612.74c.7 0 1.25.221 1.63.662.38.434.57 1.097.57 1.987v.325h-3.73c.04.539.22.951.53 1.235.32.277.77.415 1.35.415.33 0 .61-.026.84-.078.23-.053.41-.109.53-.169l.12.786c-.11.06-.31.123-.61.191-.29.067-.62.101-.98.101-.45 0-.85-.068-1.19-.202a2.358 2.358 0 0 1-.84-.573c-.23-.239-.4-.524-.51-.853a3.479 3.479 0 0 1-.17-1.088c0-.464.07-.868.21-1.212.15-.345.33-.629.57-.853.23-.225.49-.393.78-.505.29-.113.59-.169.9-.169Zm1.26 2.222c0-.441-.12-.789-.35-1.043-.23-.262-.54-.393-.92-.393-.22 0-.42.041-.6.123-.17.083-.32.191-.45.326-.12.134-.22.288-.3.46-.07.172-.12.348-.14.527h2.76Z"/><path d="M1174.33 615.479c0-.472.07-.879.22-1.224a2.36 2.36 0 0 1 1.53-1.346c.35-.113.72-.169 1.12-.169.25 0 .5.019.75.056.26.03.52.09.81.18l-.21.797c-.25-.09-.48-.146-.69-.169a4.35 4.35 0 0 0-.62-.044c-.27 0-.52.037-.76.112-.24.067-.45.179-.63.336-.17.15-.31.348-.41.595-.11.24-.16.531-.16.876 0 .329.05.613.15.853.09.232.23.426.4.583.18.15.39.262.64.337.25.075.52.112.82.112.24 0 .47-.011.68-.034.23-.03.47-.089.73-.179l.14.774c-.26.097-.53.165-.8.202-.27.045-.56.068-.87.068-.42 0-.81-.057-1.16-.169-.35-.12-.64-.292-.9-.516a2.28 2.28 0 0 1-.58-.842c-.14-.344-.2-.74-.2-1.189Zm7.79-2.615h2.2v.774h-2.2v2.424c0 .262.01.475.05.64.04.165.1.299.18.404.09.097.2.165.34.202.13.037.3.056.49.056.27 0 .49-.022.65-.067.17-.045.32-.105.47-.18l.14.786c-.11.045-.27.104-.51.179-.22.075-.5.113-.84.113-.39 0-.71-.045-.95-.135-.25-.09-.44-.225-.59-.404a1.8 1.8 0 0 1-.28-.662c-.05-.27-.08-.58-.08-.932v-2.424h-1.1v-.774h1.1v-1.459l.93-.157v1.616Z"/></g><g filter="url(#aA)" fill="#747778"><path d="M1072.64 590.867v1.768h-4.29v13.863h-2.07v-13.863h-4.3v-1.768h10.66Z"/><path fill-rule="evenodd" clip-rule="evenodd" d="M1079.87 594.503c.87 0 1.6.11 2.19.329.61.218 1.1.521 1.47.909.37.387.63.858.78 1.414.15.555.23 1.161.23 1.818v7.323c-.49.084-1.14.185-1.95.303-.79.117-1.6.176-2.45.176-.64 0-1.26-.059-1.86-.176a4.818 4.818 0 0 1-1.62-.556 3.32 3.32 0 0 1-1.14-1.161c-.28-.489-.43-1.111-.43-1.869 0-.673.15-1.237.43-1.692.31-.471.68-.85 1.14-1.136.47-.286 1-.488 1.59-.606a8.355 8.355 0 0 1 1.82-.202c.82 0 1.63.092 2.42.278v-.581c0-.354-.04-.69-.12-1.01-.07-.337-.21-.64-.43-.909-.2-.27-.49-.48-.86-.632-.36-.168-.82-.252-1.39-.252-.72 0-1.36.05-1.89.151-.54.101-.96.202-1.24.303l-.25-1.717c.28-.134.75-.252 1.41-.353.67-.101 1.39-.152 2.15-.152Zm.2 10.505c.52 0 .98-.017 1.39-.051.42-.033.76-.075 1.03-.126v-3.485a5.872 5.872 0 0 0-.98-.202c-.37-.05-.77-.075-1.19-.075-.39 0-.77.033-1.14.101-.37.05-.69.151-.98.303-.29.151-.52.353-.71.606-.18.235-.28.538-.28.909 0 .757.26 1.288.76 1.591.52.286 1.22.429 2.1.429Zm14.92.404c-.23.135-.59.278-1.08.429-.49.152-1.05.227-1.69.227-.69 0-1.34-.109-1.95-.328a4.558 4.558 0 0 1-1.56-1.035 5.19 5.19 0 0 1-1.06-1.768c-.26-.724-.38-1.574-.38-2.55 0-.859.11-1.641.35-2.349.25-.723.61-1.346 1.06-1.868a4.76 4.76 0 0 1 1.72-1.212c.67-.303 1.44-.455 2.3-.455 1.01 0 1.87.076 2.57.228.73.134 1.33.269 1.82.404v10.454c0 1.818-.46 3.131-1.39 3.939-.91.808-2.29 1.212-4.14 1.212-.76 0-1.45-.059-2.07-.177-.61-.118-1.15-.261-1.62-.429l.38-1.844c.44.186.94.337 1.49.455.57.118 1.2.177 1.87.177 1.21 0 2.08-.244 2.6-.733.52-.488.78-1.279.78-2.373v-.404Zm0-8.788c-.2-.067-.48-.126-.83-.176-.35-.068-.83-.101-1.44-.101-1.08 0-1.9.37-2.47 1.111-.56.74-.84 1.725-.84 2.954 0 .673.08 1.254.23 1.742.17.472.39.867.66 1.187.28.303.6.531.96.682.35.135.73.202 1.13.202.53 0 1.01-.076 1.47-.227.47-.152.85-.329 1.13-.531v-6.843Z"/></g></g><path d="M493.064 475.968c2.496 1.44 5.28 2.16 8.352 2.16 2.112 0 4.128-.384 6.048-1.152a19.429 19.429 0 0 0 5.256-3.312l-2.592-3.96c-1.056.96-2.28 1.8-3.672 2.52-1.392.672-2.904 1.008-4.536 1.008-3.216 0-5.832-1.224-7.848-3.672-1.968-2.496-2.952-5.736-2.952-9.72 0-2.688.456-5.04 1.368-7.056.96-2.064 2.256-3.648 3.888-4.752 1.68-1.152 3.576-1.728 5.688-1.728 1.392 0 2.64.288 3.744.864a14.462 14.462 0 0 1 3.24 2.232l3.024-3.888c-1.2-1.104-2.64-2.064-4.32-2.88-1.632-.816-3.6-1.224-5.904-1.224-2.976 0-5.76.72-8.352 2.16-2.544 1.44-4.608 3.528-6.192 6.264-1.536 2.736-2.304 6.072-2.304 10.008 0 3.84.72 7.128 2.16 9.864 1.44 2.736 3.408 4.824 5.904 6.264Z" fill="#001"/><path fill-rule="evenodd" clip-rule="evenodd" d="M524.497 475.968c2.496 1.44 5.16 2.16 7.992 2.16 2.88 0 5.544-.72 7.992-2.16 2.448-1.44 4.416-3.528 5.904-6.264 1.536-2.736 2.304-6.024 2.304-9.864 0-3.936-.768-7.272-2.304-10.008-1.488-2.736-3.456-4.824-5.904-6.264-2.448-1.44-5.112-2.16-7.992-2.16-2.832 0-5.496.72-7.992 2.16-2.448 1.44-4.44 3.528-5.976 6.264-1.488 2.736-2.232 6.072-2.232 10.008 0 3.84.744 7.128 2.232 9.864 1.536 2.736 3.528 4.824 5.976 6.264Zm15.264-6.408c-1.824 2.448-4.248 3.672-7.272 3.672-2.976 0-5.4-1.224-7.272-3.672-1.872-2.496-2.808-5.736-2.808-9.72 0-4.032.936-7.296 2.808-9.792 1.872-2.496 4.296-3.744 7.272-3.744 3.024 0 5.448 1.248 7.272 3.744 1.872 2.496 2.808 5.76 2.808 9.792 0 3.984-.936 7.224-2.808 9.72Zm19.583 3.816c2.64 3.168 6.144 4.752 10.512 4.752 2.065 0 4.009-.48 5.832-1.44 1.824-1.008 3.408-2.184 4.752-3.528h.216l.504 4.104h4.896V426h-5.976v13.464l.288 5.976c-1.536-1.248-3.048-2.232-4.536-2.952-1.488-.72-3.24-1.08-5.256-1.08-2.64 0-5.136.744-7.487 2.232-2.305 1.488-4.177 3.624-5.616 6.408-1.393 2.736-2.089 6-2.089 9.792 0 5.808 1.32 10.32 3.96 13.536Zm20.736-5.04c-2.879 3.216-5.856 4.824-8.928 4.824-3.072 0-5.448-1.176-7.128-3.528-1.68-2.4-2.52-5.688-2.52-9.864 0-2.688.456-5.016 1.368-6.984.912-2.016 2.112-3.576 3.601-4.68 1.535-1.152 3.239-1.728 5.112-1.728 1.439 0 2.832.288 4.175.864 1.392.528 2.832 1.464 4.32 2.808v18.288Zm23.45 7.632c2.544 1.44 5.376 2.16 8.496 2.16 2.4 0 4.536-.36 6.408-1.08 1.92-.72 3.624-1.56 5.112-2.52l-2.088-3.888a21.704 21.704 0 0 1-4.104 2.016c-1.392.48-2.928.72-4.608.72-3.36 0-6.096-1.104-8.208-3.312-2.064-2.208-3.216-5.16-3.456-8.856h23.616a7.03 7.03 0 0 0 .144-1.512c.048-.624.072-1.248.072-1.872 0-4.992-1.224-8.976-3.672-11.952-2.4-2.976-5.832-4.464-10.296-4.464-2.64 0-5.16.744-7.56 2.232-2.4 1.488-4.368 3.6-5.904 6.336-1.488 2.736-2.232 6.024-2.232 9.864 0 3.792.744 7.056 2.232 9.792 1.488 2.736 3.504 4.848 6.048 6.336Zm16.2-19.008h-18.72c.384-3.456 1.536-6.12 3.456-7.992 1.968-1.92 4.176-2.88 6.624-2.88 2.736 0 4.848.936 6.336 2.808 1.536 1.824 2.304 4.512 2.304 8.064Z" fill="#001"/><path d="M653.447 475.968c2.496 1.44 5.28 2.16 8.352 2.16 2.112 0 4.128-.384 6.048-1.152a19.429 19.429 0 0 0 5.256-3.312l-2.592-3.96c-1.056.96-2.28 1.8-3.672 2.52-1.392.672-2.904 1.008-4.536 1.008-3.216 0-5.832-1.224-7.848-3.672-1.968-2.496-2.952-5.736-2.952-9.72 0-2.688.456-5.04 1.368-7.056.96-2.064 2.256-3.648 3.888-4.752 1.68-1.152 3.576-1.728 5.688-1.728 1.392 0 2.64.288 3.744.864a14.462 14.462 0 0 1 3.24 2.232l3.024-3.888c-1.2-1.104-2.64-2.064-4.32-2.88-1.632-.816-3.6-1.224-5.904-1.224-2.976 0-5.76.72-8.352 2.16-2.544 1.44-4.608 3.528-6.192 6.264-1.536 2.736-2.304 6.072-2.304 10.008 0 3.84.72 7.128 2.16 9.864 1.44 2.736 3.408 4.824 5.904 6.264Z" fill="#001"/><path fill-rule="evenodd" clip-rule="evenodd" d="M684.88 475.968c2.496 1.44 5.16 2.16 7.992 2.16 2.88 0 5.544-.72 7.992-2.16 2.448-1.44 4.416-3.528 5.904-6.264 1.536-2.736 2.304-6.024 2.304-9.864 0-3.936-.768-7.272-2.304-10.008-1.488-2.736-3.456-4.824-5.904-6.264-2.448-1.44-5.112-2.16-7.992-2.16-2.832 0-5.496.72-7.992 2.16-2.448 1.44-4.44 3.528-5.976 6.264-1.488 2.736-2.232 6.072-2.232 10.008 0 3.84.744 7.128 2.232 9.864 1.536 2.736 3.528 4.824 5.976 6.264Zm15.264-6.408c-1.824 2.448-4.248 3.672-7.272 3.672-2.976 0-5.4-1.224-7.272-3.672-1.872-2.496-2.808-5.736-2.808-9.72 0-4.032.936-7.296 2.808-9.792 1.872-2.496 4.296-3.744 7.272-3.744 3.024 0 5.448 1.248 7.272 3.744 1.872 2.496 2.808 5.76 2.808 9.792 0 3.984-.936 7.224-2.808 9.72Z" fill="#001"/><path d="M719.727 476.112c1.008 1.344 2.616 2.016 4.824 2.016.816 0 1.488-.048 2.016-.144.528-.096.984-.24 1.368-.432l-.792-4.464c-.336.048-.6.096-.792.144h-.504c-.432 0-.816-.192-1.152-.576-.336-.432-.504-1.104-.504-2.016V426h-5.904v44.208c0 2.544.48 4.512 1.44 5.904Z" fill="#001"/><path fill-rule="evenodd" clip-rule="evenodd" d="M742.255 475.968c2.496 1.44 5.16 2.16 7.992 2.16 2.88 0 5.544-.72 7.992-2.16 2.448-1.44 4.416-3.528 5.904-6.264 1.536-2.736 2.304-6.024 2.304-9.864 0-3.936-.768-7.272-2.304-10.008-1.488-2.736-3.456-4.824-5.904-6.264-2.448-1.44-5.112-2.16-7.992-2.16-2.832 0-5.496.72-7.992 2.16-2.448 1.44-4.44 3.528-5.976 6.264-1.488 2.736-2.232 6.072-2.232 10.008 0 3.84.744 7.128 2.232 9.864 1.536 2.736 3.528 4.824 5.976 6.264Zm15.264-6.408c-1.824 2.448-4.248 3.672-7.272 3.672-2.976 0-5.4-1.224-7.272-3.672-1.872-2.496-2.808-5.736-2.808-9.72 0-4.032.936-7.296 2.808-9.792 1.872-2.496 4.296-3.744 7.272-3.744 3.024 0 5.448 1.248 7.272 3.744 1.872 2.496 2.808 5.76 2.808 9.792 0 3.984-.936 7.224-2.808 9.72Z" fill="#001"/><path d="M780.558 442.272h-4.896v34.992h5.904V454.8c1.2-2.976 2.592-5.064 4.176-6.264 1.632-1.2 3.192-1.8 4.68-1.8.72 0 1.32.048 1.8.144.48.096 1.008.24 1.584.432l1.152-5.184c-1.104-.48-2.352-.72-3.744-.72-1.968 0-3.816.648-5.544 1.944-1.728 1.296-3.192 3.048-4.392 5.256h-.216l-.504-6.336Z" fill="#001"/><path d="m638.362 228.558-54.073 1.545a11.295 11.295 0 0 1-4.334 5.131l-55.608 35.609c-7.005 4.485-6.972 14.73.061 19.17l53.142 33.548a11.322 11.322 0 0 1 5.185 8.028h10.354l45.273-103.031Z" fill="url(#aB)"/><path d="m639.472 331.589 45.862-104.373 10.873-.31c-.564 4.243 1.299 8.652 5.197 11.113l53.142 33.548c7.033 4.44 7.066 14.685.061 19.17l-55.609 35.608a11.305 11.305 0 0 0-4.38 5.244h-55.146Z" fill="url(#aC)"/><g filter="url(#aD)"><path d="M653.119 192.797c3.605-8.204 13.179-11.933 21.383-8.328l9.165 4.028c8.205 3.605 11.933 13.178 8.328 21.383l-68.144 155.079c-3.605 8.205-13.178 11.933-21.383 8.328l-9.165-4.027c-8.204-3.606-11.933-13.179-8.328-21.384l68.144-155.079Zm-79.834 10.486c-3.539-5.065-10.478-6.372-15.617-2.941l-103.276 68.945c-6.661 4.446-6.752 14.204-.176 18.774l98.698 68.589c5.032 3.497 11.931 2.372 15.591-2.543l11.982-16.088c3.953-5.307 2.55-12.857-3.046-16.389L524.3 288.082c-7.034-4.44-7.067-14.685-.062-19.17l55.609-35.608c5.434-3.48 6.881-10.782 3.185-16.072l-9.747-13.949Zm132.166 151.152c3.54 5.065 10.479 6.372 15.618 2.941l103.276-68.945c6.661-4.446 6.752-14.204.176-18.774l-98.698-68.589c-5.032-3.497-11.931-2.372-15.592 2.543l-11.982 16.088c-3.952 5.307-2.549 12.857 3.047 16.389l53.141 33.548c7.033 4.44 7.066 14.685.062 19.17l-55.609 35.608c-5.434 3.48-6.882 10.782-3.186 16.072l9.747 13.949Z" fill="#fff"/><path d="m675.307 182.638-.805 1.831.805-1.831c-9.216-4.049-19.97.139-24.019 9.355l-68.144 155.079c-4.049 9.215.139 19.969 9.354 24.019l9.166 4.027c9.215 4.049 19.969-.139 24.018-9.354l68.144-155.08c4.05-9.215-.138-19.969-9.354-24.018l-9.165-4.028ZM453.075 289.704l1.141-1.643-1.141 1.643 98.697 68.588c5.919 4.113 14.033 2.79 18.337-2.99l11.982-16.088c4.649-6.242 2.999-15.121-3.582-19.275l-53.142-33.548c-5.795-3.658-5.822-12.099-.05-15.795l55.608-35.608-1.078-1.684 1.078 1.684c6.391-4.093 8.094-12.681 3.747-18.901l-9.747-13.95-1.64 1.146 1.64-1.146c-4.163-5.957-12.324-7.493-18.368-3.458l-103.276 68.945c-7.833 5.229-7.94 16.705-.206 22.08Zm250.737 65.877c4.162 5.957 12.323 7.493 18.367 3.458l103.276-68.945c7.834-5.229 7.941-16.705.207-22.08l-98.698-68.588c-5.918-4.113-14.032-2.79-18.337 2.99l-11.982 16.088c-4.648 6.242-2.998 15.121 3.583 19.275l53.141 33.548c5.795 3.658 5.822 12.099.051 15.795l-55.609 35.608c-6.391 4.092-8.093 12.68-3.746 18.901l9.747 13.95Z" stroke="url(#aE)" stroke-width="4"/></g><defs><linearGradient id="c" x1="3.506" y1="2.178" x2="816.433" y2="701.934" gradientUnits="userSpaceOnUse"><stop offset=".059" stop-color="#FF3A75"/><stop offset="1" stop-color="#00D1FF"/></linearGradient><linearGradient id="d" x1="3.506" y1="2.178" x2="816.433" y2="701.934" gradientUnits="userSpaceOnUse"><stop offset=".059" stop-color="#FF3A75"/><stop offset="1" stop-color="#00D1FF"/></linearGradient><linearGradient id="e" x1="3.506" y1="2.178" x2="816.433" y2="701.934" gradientUnits="userSpaceOnUse"><stop offset=".059" stop-color="#FF3A75"/><stop offset="1" stop-color="#00D1FF"/></linearGradient><linearGradient id="f" x1="3.506" y1="2.178" x2="816.433" y2="701.934" gradientUnits="userSpaceOnUse"><stop offset=".059" stop-color="#FF3A75"/><stop offset="1" stop-color="#00D1FF"/></linearGradient><linearGradient id="g" x1="3.506" y1="2.178" x2="816.433" y2="701.934" gradientUnits="userSpaceOnUse"><stop offset=".059" stop-color="#FF3A75"/><stop offset="1" stop-color="#00D1FF"/></linearGradient><linearGradient id="h" x1="3.506" y1="2.178" x2="816.433" y2="701.934" gradientUnits="userSpaceOnUse"><stop offset=".059" stop-color="#FF3A75"/><stop offset="1" stop-color="#00D1FF"/></linearGradient><linearGradient id="i" x1="3.506" y1="2.178" x2="816.433" y2="701.934" gradientUnits="userSpaceOnUse"><stop offset=".059" stop-color="#FF3A75"/><stop offset="1" stop-color="#00D1FF"/></linearGradient><linearGradient id="j" x1="3.506" y1="2.178" x2="816.433" y2="701.934" gradientUnits="userSpaceOnUse"><stop offset=".059" stop-color="#FF3A75"/><stop offset="1" stop-color="#00D1FF"/></linearGradient><linearGradient id="k" x1="3.506" y1="2.178" x2="816.433" y2="701.934" gradientUnits="userSpaceOnUse"><stop offset=".059" stop-color="#FF3A75"/><stop offset="1" stop-color="#00D1FF"/></linearGradient><linearGradient id="l" x1="3.506" y1="2.178" x2="816.433" y2="701.934" gradientUnits="userSpaceOnUse"><stop offset=".059" stop-color="#FF3A75"/><stop offset="1" stop-color="#00D1FF"/></linearGradient><linearGradient id="m" x1="3.506" y1="2.178" x2="816.433" y2="701.934" gradientUnits="userSpaceOnUse"><stop offset=".059" stop-color="#FF3A75"/><stop offset="1" stop-color="#00D1FF"/></linearGradient><linearGradient id="n" x1="3.506" y1="2.178" x2="816.433" y2="701.934" gradientUnits="userSpaceOnUse"><stop offset=".059" stop-color="#FF3A75"/><stop offset="1" stop-color="#00D1FF"/></linearGradient><linearGradient id="o" x1="3.506" y1="2.178" x2="816.433" y2="701.934" gradientUnits="userSpaceOnUse"><stop offset=".059" stop-color="#FF3A75"/><stop offset="1" stop-color="#00D1FF"/></linearGradient><linearGradient id="p" x1="3.506" y1="2.178" x2="816.433" y2="701.934" gradientUnits="userSpaceOnUse"><stop offset=".059" stop-color="#FF3A75"/><stop offset="1" stop-color="#00D1FF"/></linearGradient><linearGradient id="q" x1="3.506" y1="2.178" x2="816.433" y2="701.934" gradientUnits="userSpaceOnUse"><stop offset=".059" stop-color="#FF3A75"/><stop offset="1" stop-color="#00D1FF"/></linearGradient><linearGradient id="r" x1="3.506" y1="2.178" x2="816.433" y2="701.934" gradientUnits="userSpaceOnUse"><stop offset=".059" stop-color="#FF3A75"/><stop offset="1" stop-color="#00D1FF"/></linearGradient><linearGradient id="s" x1="3.506" y1="2.178" x2="816.433" y2="701.934" gradientUnits="userSpaceOnUse"><stop offset=".059" stop-color="#FF3A75"/><stop offset="1" stop-color="#00D1FF"/></linearGradient><linearGradient id="t" x1="3.506" y1="2.178" x2="816.433" y2="701.934" gradientUnits="userSpaceOnUse"><stop offset=".059" stop-color="#FF3A75"/><stop offset="1" stop-color="#00D1FF"/></linearGradient><linearGradient id="u" x1="3.506" y1="2.178" x2="816.433" y2="701.934" gradientUnits="userSpaceOnUse"><stop offset=".059" stop-color="#FF3A75"/><stop offset="1" stop-color="#00D1FF"/></linearGradient><linearGradient id="v" x1="3.506" y1="2.178" x2="816.433" y2="701.934" gradientUnits="userSpaceOnUse"><stop offset=".059" stop-color="#FF3A75"/><stop offset="1" stop-color="#00D1FF"/></linearGradient><linearGradient id="w" x1="3.506" y1="2.178" x2="816.433" y2="701.934" gradientUnits="userSpaceOnUse"><stop offset=".059" stop-color="#FF3A75"/><stop offset="1" stop-color="#00D1FF"/></linearGradient><linearGradient id="x" x1="3.506" y1="2.178" x2="816.433" y2="701.934" gradientUnits="userSpaceOnUse"><stop offset=".059" stop-color="#FF3A75"/><stop offset="1" stop-color="#00D1FF"/></linearGradient><linearGradient id="y" x1="3.506" y1="2.178" x2="816.433" y2="701.934" gradientUnits="userSpaceOnUse"><stop offset=".059" stop-color="#FF3A75"/><stop offset="1" stop-color="#00D1FF"/></linearGradient><linearGradient id="z" x1="3.506" y1="2.178" x2="816.433" y2="701.934" gradientUnits="userSpaceOnUse"><stop offset=".059" stop-color="#FF3A75"/><stop offset="1" stop-color="#00D1FF"/></linearGradient><linearGradient id="A" x1="3.506" y1="2.178" x2="816.433" y2="701.934" gradientUnits="userSpaceOnUse"><stop offset=".059" stop-color="#FF3A75"/><stop offset="1" stop-color="#00D1FF"/></linearGradient><linearGradient id="B" x1="3.506" y1="2.178" x2="816.433" y2="701.934" gradientUnits="userSpaceOnUse"><stop offset=".059" stop-color="#FF3A75"/><stop offset="1" stop-color="#00D1FF"/></linearGradient><linearGradient id="C" x1="3.506" y1="2.178" x2="816.433" y2="701.934" gradientUnits="userSpaceOnUse"><stop offset=".059" stop-color="#FF3A75"/><stop offset="1" stop-color="#00D1FF"/></linearGradient><linearGradient id="D" x1="3.506" y1="2.178" x2="816.433" y2="701.934" gradientUnits="userSpaceOnUse"><stop offset=".059" stop-color="#FF3A75"/><stop offset="1" stop-color="#00D1FF"/></linearGradient><linearGradient id="E" x1="3.506" y1="2.178" x2="816.433" y2="701.934" gradientUnits="userSpaceOnUse"><stop offset=".059" stop-color="#FF3A75"/><stop offset="1" stop-color="#00D1FF"/></linearGradient><linearGradient id="F" x1="3.506" y1="2.178" x2="816.433" y2="701.934" gradientUnits="userSpaceOnUse"><stop offset=".059" stop-color="#FF3A75"/><stop offset="1" stop-color="#00D1FF"/></linearGradient><linearGradient id="G" x1="3.506" y1="2.178" x2="816.433" y2="701.934" gradientUnits="userSpaceOnUse"><stop offset=".059" stop-color="#FF3A75"/><stop offset="1" stop-color="#00D1FF"/></linearGradient><linearGradient id="H" x1="3.506" y1="2.178" x2="816.433" y2="701.934" gradientUnits="userSpaceOnUse"><stop offset=".059" stop-color="#FF3A75"/><stop offset="1" stop-color="#00D1FF"/></linearGradient><linearGradient id="I" x1="3.506" y1="2.178" x2="816.433" y2="701.934" gradientUnits="userSpaceOnUse"><stop offset=".059" stop-color="#FF3A75"/><stop offset="1" stop-color="#00D1FF"/></linearGradient><linearGradient id="J" x1="3.506" y1="2.178" x2="816.433" y2="701.934" gradientUnits="userSpaceOnUse"><stop offset=".059" stop-color="#FF3A75"/><stop offset="1" stop-color="#00D1FF"/></linearGradient><linearGradient id="K" x1="3.506" y1="2.178" x2="816.433" y2="701.934" gradientUnits="userSpaceOnUse"><stop offset=".059" stop-color="#FF3A75"/><stop offset="1" stop-color="#00D1FF"/></linearGradient><linearGradient id="L" x1="3.506" y1="2.178" x2="816.433" y2="701.934" gradientUnits="userSpaceOnUse"><stop offset=".059" stop-color="#FF3A75"/><stop offset="1" stop-color="#00D1FF"/></linearGradient><linearGradient id="M" x1="3.506" y1="2.178" x2="816.433" y2="701.934" gradientUnits="userSpaceOnUse"><stop offset=".059" stop-color="#FF3A75"/><stop offset="1" stop-color="#00D1FF"/></linearGradient><linearGradient id="N" x1="3.506" y1="2.178" x2="816.433" y2="701.934" gradientUnits="userSpaceOnUse"><stop offset=".059" stop-color="#FF3A75"/><stop offset="1" stop-color="#00D1FF"/></linearGradient><linearGradient id="O" x1="3.506" y1="2.178" x2="816.433" y2="701.934" gradientUnits="userSpaceOnUse"><stop offset=".059" stop-color="#FF3A75"/><stop offset="1" stop-color="#00D1FF"/></linearGradient><linearGradient id="P" x1="3.506" y1="2.178" x2="816.433" y2="701.934" gradientUnits="userSpaceOnUse"><stop offset=".059" stop-color="#FF3A75"/><stop offset="1" stop-color="#00D1FF"/></linearGradient><linearGradient id="Q" x1="3.506" y1="2.178" x2="816.433" y2="701.934" gradientUnits="userSpaceOnUse"><stop offset=".059" stop-color="#FF3A75"/><stop offset="1" stop-color="#00D1FF"/></linearGradient><linearGradient id="R" x1="3.506" y1="2.178" x2="816.433" y2="701.934" gradientUnits="userSpaceOnUse"><stop offset=".059" stop-color="#FF3A75"/><stop offset="1" stop-color="#00D1FF"/></linearGradient><linearGradient id="S" x1="3.506" y1="2.178" x2="816.433" y2="701.934" gradientUnits="userSpaceOnUse"><stop offset=".059" stop-color="#FF3A75"/><stop offset="1" stop-color="#00D1FF"/></linearGradient><linearGradient id="T" x1="3.506" y1="2.178" x2="816.433" y2="701.934" gradientUnits="userSpaceOnUse"><stop offset=".059" stop-color="#FF3A75"/><stop offset="1" stop-color="#00D1FF"/></linearGradient><linearGradient id="U" x1="3.506" y1="2.178" x2="816.433" y2="701.934" gradientUnits="userSpaceOnUse"><stop offset=".059" stop-color="#FF3A75"/><stop offset="1" stop-color="#00D1FF"/></linearGradient><linearGradient id="V" x1="3.506" y1="2.178" x2="816.433" y2="701.934" gradientUnits="userSpaceOnUse"><stop offset=".059" stop-color="#FF3A75"/><stop offset="1" stop-color="#00D1FF"/></linearGradient><linearGradient id="W" x1="3.506" y1="2.178" x2="816.433" y2="701.934" gradientUnits="userSpaceOnUse"><stop offset=".059" stop-color="#FF3A75"/><stop offset="1" stop-color="#00D1FF"/></linearGradient><linearGradient id="X" x1="3.506" y1="2.178" x2="816.433" y2="701.934" gradientUnits="userSpaceOnUse"><stop offset=".059" stop-color="#FF3A75"/><stop offset="1" stop-color="#00D1FF"/></linearGradient><linearGradient id="Y" x1="3.506" y1="2.178" x2="816.433" y2="701.934" gradientUnits="userSpaceOnUse"><stop offset=".059" stop-color="#FF3A75"/><stop offset="1" stop-color="#00D1FF"/></linearGradient><linearGradient id="Z" x1="3.506" y1="2.178" x2="816.433" y2="701.934" gradientUnits="userSpaceOnUse"><stop offset=".059" stop-color="#FF3A75"/><stop offset="1" stop-color="#00D1FF"/></linearGradient><linearGradient id="aa" x1="3.506" y1="2.178" x2="816.433" y2="701.934" gradientUnits="userSpaceOnUse"><stop offset=".059" stop-color="#FF3A75"/><stop offset="1" stop-color="#00D1FF"/></linearGradient><linearGradient id="ab" x1="3.506" y1="2.178" x2="816.433" y2="701.934" gradientUnits="userSpaceOnUse"><stop offset=".059" stop-color="#FF3A75"/><stop offset="1" stop-color="#00D1FF"/></linearGradient><linearGradient id="ac" x1="3.506" y1="2.178" x2="816.433" y2="701.934" gradientUnits="userSpaceOnUse"><stop offset=".059" stop-color="#FF3A75"/><stop offset="1" stop-color="#00D1FF"/></linearGradient><linearGradient id="ad" x1="3.506" y1="2.178" x2="816.433" y2="701.934" gradientUnits="userSpaceOnUse"><stop offset=".059" stop-color="#FF3A75"/><stop offset="1" stop-color="#00D1FF"/></linearGradient><linearGradient id="ae" x1="3.506" y1="2.178" x2="816.433" y2="701.934" gradientUnits="userSpaceOnUse"><stop offset=".059" stop-color="#FF3A75"/><stop offset="1" stop-color="#00D1FF"/></linearGradient><linearGradient id="af" x1="3.506" y1="2.178" x2="816.433" y2="701.934" gradientUnits="userSpaceOnUse"><stop offset=".059" stop-color="#FF3A75"/><stop offset="1" stop-color="#00D1FF"/></linearGradient><linearGradient id="ag" x1="3.506" y1="2.178" x2="816.433" y2="701.934" gradientUnits="userSpaceOnUse"><stop offset=".059" stop-color="#FF3A75"/><stop offset="1" stop-color="#00D1FF"/></linearGradient><linearGradient id="ah" x1="3.506" y1="2.178" x2="816.433" y2="701.934" gradientUnits="userSpaceOnUse"><stop offset=".059" stop-color="#FF3A75"/><stop offset="1" stop-color="#00D1FF"/></linearGradient><linearGradient id="ai" x1="3.506" y1="2.178" x2="816.433" y2="701.934" gradientUnits="userSpaceOnUse"><stop offset=".059" stop-color="#FF3A75"/><stop offset="1" stop-color="#00D1FF"/></linearGradient><linearGradient id="aj" x1="3.506" y1="2.178" x2="816.433" y2="701.934" gradientUnits="userSpaceOnUse"><stop offset=".059" stop-color="#FF3A75"/><stop offset="1" stop-color="#00D1FF"/></linearGradient><linearGradient id="ak" x1="3.506" y1="2.178" x2="816.433" y2="701.934" gradientUnits="userSpaceOnUse"><stop offset=".059" stop-color="#FF3A75"/><stop offset="1" stop-color="#00D1FF"/></linearGradient><linearGradient id="al" x1="3.506" y1="2.178" x2="816.433" y2="701.934" gradientUnits="userSpaceOnUse"><stop offset=".059" stop-color="#FF3A75"/><stop offset="1" stop-color="#00D1FF"/></linearGradient><linearGradient id="am" x1="3.506" y1="2.178" x2="816.433" y2="701.934" gradientUnits="userSpaceOnUse"><stop offset=".059" stop-color="#FF3A75"/><stop offset="1" stop-color="#00D1FF"/></linearGradient><linearGradient id="an" x1="3.506" y1="2.178" x2="816.433" y2="701.934" gradientUnits="userSpaceOnUse"><stop offset=".059" stop-color="#FF3A75"/><stop offset="1" stop-color="#00D1FF"/></linearGradient><linearGradient id="ao" x1="3.506" y1="2.178" x2="816.433" y2="701.934" gradientUnits="userSpaceOnUse"><stop offset=".059" stop-color="#FF3A75"/><stop offset="1" stop-color="#00D1FF"/></linearGradient><linearGradient id="ap" x1="3.506" y1="2.178" x2="816.433" y2="701.934" gradientUnits="userSpaceOnUse"><stop offset=".059" stop-color="#FF3A75"/><stop offset="1" stop-color="#00D1FF"/></linearGradient><linearGradient id="aq" x1="3.506" y1="2.178" x2="816.433" y2="701.934" gradientUnits="userSpaceOnUse"><stop offset=".059" stop-color="#FF3A75"/><stop offset="1" stop-color="#00D1FF"/></linearGradient><linearGradient id="ar" x1="3.506" y1="2.178" x2="816.433" y2="701.934" gradientUnits="userSpaceOnUse"><stop offset=".059" stop-color="#FF3A75"/><stop offset="1" stop-color="#00D1FF"/></linearGradient><linearGradient id="as" x1="3.506" y1="2.178" x2="816.433" y2="701.934" gradientUnits="userSpaceOnUse"><stop offset=".059" stop-color="#FF3A75"/><stop offset="1" stop-color="#00D1FF"/></linearGradient><linearGradient id="at" x1="3.506" y1="2.178" x2="816.433" y2="701.934" gradientUnits="userSpaceOnUse"><stop offset=".059" stop-color="#FF3A75"/><stop offset="1" stop-color="#00D1FF"/></linearGradient><linearGradient id="aB" x1="445.5" y1="278.854" x2="834.933" y2="278.854" gradientUnits="userSpaceOnUse"><stop offset="0" stop-color="#FF688C"/><stop offset=".188" stop-color="#E9609C"/><stop offset=".344" stop-color="#CD5DA9"/><stop offset=".521" stop-color="#AB5DB2"/><stop offset=".672" stop-color="#835EB5"/><stop offset=".844" stop-color="#555EB2"/><stop offset="1" stop-color="#005DA9"/></linearGradient><linearGradient id="aC" x1="445.5" y1="278.854" x2="834.933" y2="278.854" gradientUnits="userSpaceOnUse"><stop offset="0" stop-color="#FF688C"/><stop offset=".188" stop-color="#E9609C"/><stop offset=".344" stop-color="#CD5DA9"/><stop offset=".521" stop-color="#AB5DB2"/><stop offset=".672" stop-color="#835EB5"/><stop offset=".844" stop-color="#555EB2"/><stop offset="1" stop-color="#005DA9"/></linearGradient><linearGradient id="aE" x1="333.119" y1="278.157" x2="947.952" y2="278.157" gradientUnits="userSpaceOnUse"><stop offset="0" stop-color="#FF688C"/><stop offset=".188" stop-color="#E9609C"/><stop offset=".344" stop-color="#CD5DA9"/><stop offset=".521" stop-color="#AB5DB2"/><stop offset=".672" stop-color="#835EB5"/><stop offset=".844" stop-color="#555EB2"/><stop offset="1" stop-color="#005DA9"/></linearGradient><filter id="b" x="-.1" y="-1.822" width="877.74" height="649.618" filterUnits="userSpaceOnUse" color-interpolation-filters="sRGB"><feFlood flood-opacity="0" result="BackgroundImageFix"/><feColorMatrix in="SourceAlpha" values="0 0 0 0 0 0 0 0 0 0 0 0 0 0 0 0 0 0 127 0" result="hardAlpha"/><feOffset dx="2" dy="4"/><feGaussianBlur stdDeviation="2"/><feColorMatrix values="0 0 0 0 0.0823529 0 0 0 0 0.12549 0 0 0 0 0.168627 0 0 0 0.4 0"/><feBlend in2="BackgroundImageFix" result="effect1_dropShadow_253_752"/><feBlend in="SourceGraphic" in2="effect1_dropShadow_253_752" result="shape"/><feColorMatrix in="SourceAlpha" values="0 0 0 0 0 0 0 0 0 0 0 0 0 0 0 0 0 0 127 0" result="hardAlpha"/><feOffset dy="-4"/><feGaussianBlur stdDeviation="4"/><feComposite in2="hardAlpha" operator="arithmetic" k2="-1" k3="1"/><feColorMatrix values="0 0 0 0 0.0666667 0 0 0 0 0.0666667 0 0 0 0 0.0666667 0 0 0 0.3 0"/><feBlend in2="shape" result="effect2_innerShadow_253_752"/></filter><filter id="au" x="69" y="73" width="1146" height="502" filterUnits="userSpaceOnUse" color-interpolation-filters="sRGB"><feFlood flood-opacity="0" result="BackgroundImageFix"/><feColorMatrix in="SourceAlpha" values="0 0 0 0 0 0 0 0 0 0 0 0 0 0 0 0 0 0 127 0" result="hardAlpha"/><feOffset dx="2" dy="4"/><feGaussianBlur stdDeviation="4"/><feColorMatrix values="0 0 0 0 0.0823529 0 0 0 0 0.12549 0 0 0 0 0.168627 0 0 0 0.4 0"/><feBlend in2="BackgroundImageFix" result="effect1_dropShadow_253_752"/><feBlend in="SourceGraphic" in2="effect1_dropShadow_253_752" result="shape"/></filter><filter id="av" x="1116.37" y="572.024" width="26.715" height="37.478" filterUnits="userSpaceOnUse" color-interpolation-filters="sRGB"><feFlood flood-opacity="0" result="BackgroundImageFix"/><feColorMatrix in="SourceAlpha" values="0 0 0 0 0 0 0 0 0 0 0 0 0 0 0 0 0 0 127 0" result="hardAlpha"/><feOffset dy="4"/><feGaussianBlur stdDeviation="2"/><feColorMatrix values="0 0 0 0 0 0 0 0 0 0 0 0 0 0 0 0 0 0 0.25 0"/><feBlend in2="BackgroundImageFix" result="effect1_dropShadow_253_752"/><feBlend in="SourceGraphic" in2="effect1_dropShadow_253_752" result="shape"/><feColorMatrix in="SourceAlpha" values="0 0 0 0 0 0 0 0 0 0 0 0 0 0 0 0 0 0 127 0" result="hardAlpha"/><feOffset dx="-6" dy="-12"/><feGaussianBlur stdDeviation="8"/><feComposite in2="hardAlpha" operator="arithmetic" k2="-1" k3="1"/><feColorMatrix values="0 0 0 0 0.0666667 0 0 0 0 0.0666667 0 0 0 0 0.0666667 0 0 0 0.3 0"/><feBlend mode="hard-light" in2="shape" result="effect2_innerShadow_253_752"/></filter><filter id="aw" x="1116.36" y="589.649" width="41.723" height="41.192" filterUnits="userSpaceOnUse" color-interpolation-filters="sRGB"><feFlood flood-opacity="0" result="BackgroundImageFix"/><feColorMatrix in="SourceAlpha" values="0 0 0 0 0 0 0 0 0 0 0 0 0 0 0 0 0 0 127 0" result="hardAlpha"/><feOffset dx="3" dy="6"/><feGaussianBlur stdDeviation="6"/><feColorMatrix values="0 0 0 0 0 0 0 0 0 0 0 0 0 0 0 0 0 0 0.35 0"/><feBlend in2="BackgroundImageFix" result="effect1_dropShadow_253_752"/><feBlend in="SourceGraphic" in2="effect1_dropShadow_253_752" result="shape"/></filter><filter id="ax" x="1100.59" y="600.549" width="26.715" height="29.478" filterUnits="userSpaceOnUse" color-interpolation-filters="sRGB"><feFlood flood-opacity="0" result="BackgroundImageFix"/><feColorMatrix in="SourceAlpha" values="0 0 0 0 0 0 0 0 0 0 0 0 0 0 0 0 0 0 127 0" result="hardAlpha"/><feOffset dy="4"/><feGaussianBlur stdDeviation="2"/><feColorMatrix values="0 0 0 0 0 0 0 0 0 0 0 0 0 0 0 0 0 0 0.25 0"/><feBlend in2="BackgroundImageFix" result="effect1_dropShadow_253_752"/><feBlend in="SourceGraphic" in2="effect1_dropShadow_253_752" result="shape"/><feColorMatrix in="SourceAlpha" values="0 0 0 0 0 0 0 0 0 0 0 0 0 0 0 0 0 0 127 0" result="hardAlpha"/><feOffset dx="6" dy="12"/><feGaussianBlur stdDeviation="8"/><feComposite in2="hardAlpha" operator="arithmetic" k2="-1" k3="1"/><feColorMatrix values="0 0 0 0 0.0666667 0 0 0 0 0.0666667 0 0 0 0 0.0666667 0 0 0 0.3 0"/><feBlend mode="hard-light" in2="shape" result="effect2_innerShadow_253_752"/></filter><filter id="ay" x="1091.64" y="583.282" width="41.723" height="41.192" filterUnits="userSpaceOnUse" color-interpolation-filters="sRGB"><feFlood flood-opacity="0" result="BackgroundImageFix"/><feColorMatrix in="SourceAlpha" values="0 0 0 0 0 0 0 0 0 0 0 0 0 0 0 0 0 0 127 0" result="hardAlpha"/><feOffset dx="3" dy="6"/><feGaussianBlur stdDeviation="6"/><feColorMatrix values="0 0 0 0 0 0 0 0 0 0 0 0 0 0 0 0 0 0 0.35 0"/><feBlend in2="BackgroundImageFix" result="effect1_dropShadow_253_752"/><feBlend in="SourceGraphic" in2="effect1_dropShadow_253_752" result="shape"/></filter><filter id="az" x="1133.09" y="604.552" width="66.352" height="33.427" filterUnits="userSpaceOnUse" color-interpolation-filters="sRGB"><feFlood flood-opacity="0" result="BackgroundImageFix"/><feColorMatrix in="SourceAlpha" values="0 0 0 0 0 0 0 0 0 0 0 0 0 0 0 0 0 0 127 0" result="hardAlpha"/><feOffset dx="3" dy="6"/><feGaussianBlur stdDeviation="6"/><feColorMatrix values="0 0 0 0 0 0 0 0 0 0 0 0 0 0 0 0 0 0 0.35 0"/><feBlend in2="BackgroundImageFix" result="effect1_dropShadow_253_752"/><feBlend in="SourceGraphic" in2="effect1_dropShadow_253_752" result="shape"/></filter><filter id="aA" x="1052.98" y="584.867" width="59.106" height="43.873" filterUnits="userSpaceOnUse" color-interpolation-filters="sRGB"><feFlood flood-opacity="0" result="BackgroundImageFix"/><feColorMatrix in="SourceAlpha" values="0 0 0 0 0 0 0 0 0 0 0 0 0 0 0 0 0 0 127 0" result="hardAlpha"/><feOffset dx="3" dy="6"/><feGaussianBlur stdDeviation="6"/><feColorMatrix values="0 0 0 0 0 0 0 0 0 0 0 0 0 0 0 0 0 0 0.35 0"/><feBlend in2="BackgroundImageFix" result="effect1_dropShadow_253_752"/><feBlend in="SourceGraphic" in2="effect1_dropShadow_253_752" result="shape"/></filter><filter id="aD" x="439.34" y="179.093" width="396.057" height="207.57" filterUnits="userSpaceOnUse" color-interpolation-filters="sRGB"><feFlood flood-opacity="0" result="BackgroundImageFix"/><feColorMatrix in="SourceAlpha" values="0 0 0 0 0 0 0 0 0 0 0 0 0 0 0 0 0 0 127 0" result="hardAlpha"/><feOffset dx="-2" dy="4"/><feGaussianBlur stdDeviation="2"/><feColorMatrix values="0 0 0 0 0 0 0 0 0 0 0 0 0 0 0 0 0 0 0.68 0"/><feBlend in2="BackgroundImageFix" result="effect1_dropShadow_253_752"/><feBlend in="SourceGraphic" in2="effect1_dropShadow_253_752" result="shape"/></filter><clipPath id="a"><path fill="#fff" d="M0 0h1280v647H0z"/></clipPath></defs></svg>