<svg width="265" height="144" fill="none" xmlns="http://www.w3.org/2000/svg"><path d="m131.491 41.019-33.325.952a6.965 6.965 0 0 1-2.67 3.162l-34.27 21.944c-4.318 2.765-4.297 9.078.037 11.815l32.75 20.674a6.978 6.978 0 0 1 3.196 4.948h6.381l27.901-63.495Z" fill="url(#a)"/><path d="m132.174 104.514 28.265-64.323 6.7-.191a7 7 0 0 0 3.203 6.849l32.75 20.675c4.335 2.736 4.355 9.05.038 11.814l-34.27 21.945a6.96 6.96 0 0 0-2.7 3.231h-33.986Z" fill="url(#b)"/><g filter="url(#c)"><path d="M140.585 18.98c2.222-5.057 8.122-7.354 13.178-5.133l5.648 2.482c5.057 2.222 7.354 8.122 5.133 13.178l-41.996 95.572c-2.222 5.057-8.122 7.354-13.178 5.133l-5.648-2.482c-5.057-2.222-7.354-8.122-5.132-13.178l41.995-95.572Zm-49.2 6.462a7 7 0 0 0-9.625-1.813L18.113 66.12c-4.104 2.74-4.16 8.754-.108 11.57l60.826 42.27a7 7 0 0 0 9.608-1.567l7.385-9.915a7 7 0 0 0-1.878-10.1l-32.75-20.675c-4.334-2.737-4.354-9.05-.038-11.814l34.27-21.945a7 7 0 0 0 1.964-9.904l-6.007-8.597Zm81.451 93.152a7 7 0 0 0 9.625 1.812l63.647-42.49c4.105-2.74 4.161-8.753.108-11.57l-60.825-42.27a7 7 0 0 0-9.609 1.568l-7.384 9.915a7 7 0 0 0 1.877 10.1l32.75 20.675c4.335 2.736 4.355 9.05.038 11.814l-34.27 21.945a7 7 0 0 0-1.964 9.904l6.007 8.597Z" fill="#fff"/><path d="m154.568 12.016-.803 1.827.803-1.827c-6.068-2.666-13.148.091-15.814 6.16l-41.995 95.571c-2.667 6.068.09 13.148 6.158 15.814l5.648 2.482c6.068 2.666 13.148-.092 15.814-6.159l41.996-95.572c2.666-6.068-.092-13.148-6.159-15.814l-5.648-2.482ZM16.864 79.331l1.044-1.502-1.044 1.502 60.825 42.27a9 9 0 0 0 12.354-2.015l7.385-9.915-1.604-1.194 1.604 1.194c3.132-4.205 2.02-10.187-2.414-12.986L62.264 76.01c-3.096-1.954-3.11-6.464-.027-8.438l34.27-21.945-1.058-1.653 1.058 1.653c4.306-2.757 5.453-8.543 2.524-12.734l-6.007-8.597-1.639 1.146 1.64-1.146a9 9 0 0 0-12.375-2.33l-63.647 42.49c-5.277 3.522-5.35 11.254-.14 14.875Zm150.85 19.077 1.079 1.685-1.079-1.685c-4.306 2.757-5.453 8.543-2.524 12.735l6.007 8.596a9 9 0 0 0 12.374 2.331l63.647-42.49c5.278-3.523 5.35-11.255.139-14.876l-60.825-42.27a9 9 0 0 0-12.354 2.015l-7.384 9.915c-3.132 4.206-2.02 10.187 2.414 12.986l32.749 20.675c3.097 1.954 3.111 6.464.028 8.439l-34.271 21.944Z" stroke="url(#d)" stroke-width="4"/></g><defs><linearGradient id="a" x1="12.633" y1="72.014" x2="252.633" y2="72.014" gradientUnits="userSpaceOnUse"><stop offset="0" stop-color="#FF688C"/><stop offset=".188" stop-color="#E9609C"/><stop offset=".344" stop-color="#CD5DA9"/><stop offset=".521" stop-color="#AB5DB2"/><stop offset=".672" stop-color="#835EB5"/><stop offset=".844" stop-color="#555EB2"/><stop offset="1" stop-color="#005DA9"/></linearGradient><linearGradient id="b" x1="12.633" y1="72.014" x2="252.633" y2="72.014" gradientUnits="userSpaceOnUse"><stop offset="0" stop-color="#FF688C"/><stop offset=".188" stop-color="#E9609C"/><stop offset=".344" stop-color="#CD5DA9"/><stop offset=".521" stop-color="#AB5DB2"/><stop offset=".672" stop-color="#835EB5"/><stop offset=".844" stop-color="#555EB2"/><stop offset="1" stop-color="#005DA9"/></linearGradient><linearGradient id="d" x1="-56.624" y1="71.585" x2="322.285" y2="71.585" gradientUnits="userSpaceOnUse"><stop offset="0" stop-color="#FF688C"/><stop offset=".188" stop-color="#E9609C"/><stop offset=".344" stop-color="#CD5DA9"/><stop offset=".521" stop-color="#AB5DB2"/><stop offset=".672" stop-color="#835EB5"/><stop offset=".844" stop-color="#555EB2"/><stop offset="1" stop-color="#005DA9"/></linearGradient><filter id="c" x="5" y="8.999" width="250.221" height="134.061" filterUnits="userSpaceOnUse" color-interpolation-filters="sRGB"><feFlood flood-opacity="0" result="BackgroundImageFix"/><feColorMatrix in="SourceAlpha" values="0 0 0 0 0 0 0 0 0 0 0 0 0 0 0 0 0 0 127 0" result="hardAlpha"/><feOffset dx="-2" dy="4"/><feGaussianBlur stdDeviation="2"/><feColorMatrix values="0 0 0 0 0 0 0 0 0 0 0 0 0 0 0 0 0 0 0.68 0"/><feBlend in2="BackgroundImageFix" result="effect1_dropShadow_253_741"/><feBlend in="SourceGraphic" in2="effect1_dropShadow_253_741" result="shape"/></filter></defs></svg>